<svg height="5918" width="720" xmlns="http://www.w3.org/2000/svg">
<rect height="5918" fill="#555" width="720"></rect>
<text fill="#7f7" font-family="Courier New" font-size="12" xml:space="preserve">
<tspan x="10" y="26">52 megabytes installed</tspan>
<tspan x="10" y="42"></tspan>
<tspan x="10" y="58">node_modules</tspan>
<tspan x="10" y="74">├── angular@1.6.4 </tspan>
<tspan x="10" y="90">├── angular-bindonce@0.3.1 </tspan>
<tspan x="10" y="106">├── angular-bootstrap@0.12.2 </tspan>
<tspan x="10" y="122">├── angular-chart.js@0.8.9 </tspan>
<tspan x="10" y="138">├── angular-sanitize@1.6.4 </tspan>
<tspan x="10" y="154">├── angular-socket-io@0.7.0 </tspan>
<tspan x="10" y="170">├── angular-spinner@0.8.1 </tspan>
<tspan x="10" y="186">├─┬ angular-toarrayfilter@1.0.1 </tspan>
<tspan x="10" y="202">│ ├─┬ karma@0.12.37 </tspan>
<tspan x="10" y="218">│ │ ├─┬ chokidar@1.6.1 </tspan>
<tspan x="10" y="234">│ │ │ ├─┬ anymatch@1.3.0 </tspan>
<tspan x="10" y="250">│ │ │ │ ├── arrify@1.0.1 </tspan>
<tspan x="10" y="266">│ │ │ │ └─┬ micromatch@2.3.11 </tspan>
<tspan x="10" y="282">│ │ │ │   ├─┬ arr-diff@2.0.0 </tspan>
<tspan x="10" y="298">│ │ │ │   │ └── arr-flatten@1.0.3 </tspan>
<tspan x="10" y="314">│ │ │ │   ├── array-unique@0.2.1 </tspan>
<tspan x="10" y="330">│ │ │ │   ├─┬ braces@1.8.5 </tspan>
<tspan x="10" y="346">│ │ │ │   │ ├─┬ expand-range@1.8.2 </tspan>
<tspan x="10" y="362">│ │ │ │   │ │ └─┬ fill-range@2.2.3 </tspan>
<tspan x="10" y="378">│ │ │ │   │ │   ├── is-number@2.1.0 </tspan>
<tspan x="10" y="394">│ │ │ │   │ │   ├── isobject@2.1.0 </tspan>
<tspan x="10" y="410">│ │ │ │   │ │   ├── randomatic@1.1.6 </tspan>
<tspan x="10" y="426">│ │ │ │   │ │   └── repeat-string@1.6.1 </tspan>
<tspan x="10" y="442">│ │ │ │   │ ├── preserve@0.2.0 </tspan>
<tspan x="10" y="458">│ │ │ │   │ └── repeat-element@1.1.2 </tspan>
<tspan x="10" y="474">│ │ │ │   ├─┬ expand-brackets@0.1.5 </tspan>
<tspan x="10" y="490">│ │ │ │   │ └── is-posix-bracket@0.1.1 </tspan>
<tspan x="10" y="506">│ │ │ │   ├── extglob@0.3.2 </tspan>
<tspan x="10" y="522">│ │ │ │   ├── filename-regex@2.0.0 </tspan>
<tspan x="10" y="538">│ │ │ │   ├─┬ kind-of@3.1.0 </tspan>
<tspan x="10" y="554">│ │ │ │   │ └── is-buffer@1.1.5 </tspan>
<tspan x="10" y="570">│ │ │ │   ├─┬ normalize-path@2.1.1 </tspan>
<tspan x="10" y="586">│ │ │ │   │ └── remove-trailing-separator@1.0.1 </tspan>
<tspan x="10" y="602">│ │ │ │   ├─┬ object.omit@2.0.1 </tspan>
<tspan x="10" y="618">│ │ │ │   │ ├─┬ for-own@0.1.5 </tspan>
<tspan x="10" y="634">│ │ │ │   │ │ └── for-in@1.0.2 </tspan>
<tspan x="10" y="650">│ │ │ │   │ └── is-extendable@0.1.1 </tspan>
<tspan x="10" y="666">│ │ │ │   ├─┬ parse-glob@3.0.4 </tspan>
<tspan x="10" y="682">│ │ │ │   │ ├── glob-base@0.3.0 </tspan>
<tspan x="10" y="698">│ │ │ │   │ └── is-dotfile@1.0.2 </tspan>
<tspan x="10" y="714">│ │ │ │   └─┬ regex-cache@0.4.3 </tspan>
<tspan x="10" y="730">│ │ │ │     ├── is-equal-shallow@0.1.3 </tspan>
<tspan x="10" y="746">│ │ │ │     └── is-primitive@2.0.0 </tspan>
<tspan x="10" y="762">│ │ │ ├── async-each@1.0.1 </tspan>
<tspan x="10" y="778">│ │ │ ├── glob-parent@2.0.0 </tspan>
<tspan x="10" y="794">│ │ │ ├── inherits@2.0.3 </tspan>
<tspan x="10" y="810">│ │ │ ├─┬ is-binary-path@1.0.1 </tspan>
<tspan x="10" y="826">│ │ │ │ └── binary-extensions@1.8.0 </tspan>
<tspan x="10" y="842">│ │ │ ├─┬ is-glob@2.0.1 </tspan>
<tspan x="10" y="858">│ │ │ │ └── is-extglob@1.0.0 </tspan>
<tspan x="10" y="874">│ │ │ ├── path-is-absolute@1.0.1 </tspan>
<tspan x="10" y="890">│ │ │ └─┬ readdirp@2.1.0 </tspan>
<tspan x="10" y="906">│ │ │   ├── graceful-fs@4.1.11 </tspan>
<tspan x="10" y="922">│ │ │   ├── minimatch@3.0.3 </tspan>
<tspan x="10" y="938">│ │ │   ├─┬ readable-stream@2.2.9 </tspan>
<tspan x="10" y="954">│ │ │   │ ├── buffer-shims@1.0.0 </tspan>
<tspan x="10" y="970">│ │ │   │ ├── isarray@1.0.0 </tspan>
<tspan x="10" y="986">│ │ │   │ ├── process-nextick-args@1.0.7 </tspan>
<tspan x="10" y="1002">│ │ │   │ ├── string_decoder@1.0.0 </tspan>
<tspan x="10" y="1018">│ │ │   │ └── util-deprecate@1.0.2 </tspan>
<tspan x="10" y="1034">│ │ │   └── set-immediate-shim@1.0.1 </tspan>
<tspan x="10" y="1050">│ │ ├── colors@1.1.2 </tspan>
<tspan x="10" y="1066">│ │ ├─┬ connect@2.30.2 </tspan>
<tspan x="10" y="1082">│ │ │ ├── basic-auth-connect@1.0.0 </tspan>
<tspan x="10" y="1098">│ │ │ ├─┬ body-parser@1.13.3 </tspan>
<tspan x="10" y="1114">│ │ │ │ ├── iconv-lite@0.4.11 </tspan>
<tspan x="10" y="1130">│ │ │ │ ├─┬ on-finished@2.3.0 </tspan>
<tspan x="10" y="1146">│ │ │ │ │ └── ee-first@1.1.1 </tspan>
<tspan x="10" y="1162">│ │ │ │ └─┬ raw-body@2.1.7 </tspan>
<tspan x="10" y="1178">│ │ │ │   ├── bytes@2.4.0 </tspan>
<tspan x="10" y="1194">│ │ │ │   └── iconv-lite@0.4.13 </tspan>
<tspan x="10" y="1210">│ │ │ ├── bytes@2.1.0 </tspan>
<tspan x="10" y="1226">│ │ │ ├─┬ compression@1.5.2 </tspan>
<tspan x="10" y="1242">│ │ │ │ ├─┬ accepts@1.2.13 </tspan>
<tspan x="10" y="1258">│ │ │ │ │ └── negotiator@0.5.3 </tspan>
<tspan x="10" y="1274">│ │ │ │ ├─┬ compressible@2.0.10 </tspan>
<tspan x="10" y="1290">│ │ │ │ │ └── mime-db@1.27.0 </tspan>
<tspan x="10" y="1306">│ │ │ │ └── vary@1.0.1 </tspan>
<tspan x="10" y="1322">│ │ │ ├── connect-timeout@1.6.2 </tspan>
<tspan x="10" y="1338">│ │ │ ├── content-type@1.0.2 </tspan>
<tspan x="10" y="1354">│ │ │ ├── cookie@0.1.3 </tspan>
<tspan x="10" y="1370">│ │ │ ├── cookie-parser@1.3.5 </tspan>
<tspan x="10" y="1386">│ │ │ ├── cookie-signature@1.0.6 </tspan>
<tspan x="10" y="1402">│ │ │ ├─┬ csurf@1.8.3 </tspan>
<tspan x="10" y="1418">│ │ │ │ └─┬ csrf@3.0.6 </tspan>
<tspan x="10" y="1434">│ │ │ │   ├── rndm@1.2.0 </tspan>
<tspan x="10" y="1450">│ │ │ │   ├── tsscmp@1.0.5 </tspan>
<tspan x="10" y="1466">│ │ │ │   └─┬ uid-safe@2.1.4 </tspan>
<tspan x="10" y="1482">│ │ │ │     └── random-bytes@1.0.0 </tspan>
<tspan x="10" y="1498">│ │ │ ├── depd@1.0.1 </tspan>
<tspan x="10" y="1514">│ │ │ ├─┬ errorhandler@1.4.3 </tspan>
<tspan x="10" y="1530">│ │ │ │ ├─┬ accepts@1.3.3 </tspan>
<tspan x="10" y="1546">│ │ │ │ │ └── negotiator@0.6.1 </tspan>
<tspan x="10" y="1562">│ │ │ │ └── escape-html@1.0.3 </tspan>
<tspan x="10" y="1578">│ │ │ ├─┬ express-session@1.11.3 </tspan>
<tspan x="10" y="1594">│ │ │ │ ├── crc@3.3.0 </tspan>
<tspan x="10" y="1610">│ │ │ │ └─┬ uid-safe@2.0.0 </tspan>
<tspan x="10" y="1626">│ │ │ │   └── base64-url@1.2.1 </tspan>
<tspan x="10" y="1642">│ │ │ ├─┬ finalhandler@0.4.0 </tspan>
<tspan x="10" y="1658">│ │ │ │ ├── escape-html@1.0.2 </tspan>
<tspan x="10" y="1674">│ │ │ │ └── unpipe@1.0.0 </tspan>
<tspan x="10" y="1690">│ │ │ ├── fresh@0.3.0 </tspan>
<tspan x="10" y="1706">│ │ │ ├─┬ http-errors@1.3.1 </tspan>
<tspan x="10" y="1722">│ │ │ │ └── statuses@1.3.1 </tspan>
<tspan x="10" y="1738">│ │ │ ├─┬ method-override@2.3.8 </tspan>
<tspan x="10" y="1754">│ │ │ │ ├─┬ debug@2.6.3 </tspan>
<tspan x="10" y="1770">│ │ │ │ │ └── ms@0.7.2 </tspan>
<tspan x="10" y="1786">│ │ │ │ ├── methods@1.1.2 </tspan>
<tspan x="10" y="1802">│ │ │ │ └── vary@1.1.1 </tspan>
<tspan x="10" y="1818">│ │ │ ├─┬ morgan@1.6.1 </tspan>
<tspan x="10" y="1834">│ │ │ │ └── basic-auth@1.0.4 </tspan>
<tspan x="10" y="1850">│ │ │ ├─┬ multiparty@3.3.2 </tspan>
<tspan x="10" y="1866">│ │ │ │ ├─┬ readable-stream@1.1.14 </tspan>
<tspan x="10" y="1882">│ │ │ │ │ ├── isarray@0.0.1 </tspan>
<tspan x="10" y="1898">│ │ │ │ │ └── string_decoder@0.10.31 </tspan>
<tspan x="10" y="1914">│ │ │ │ └─┬ stream-counter@0.2.0 </tspan>
<tspan x="10" y="1930">│ │ │ │   └─┬ readable-stream@1.1.14 </tspan>
<tspan x="10" y="1946">│ │ │ │     ├── isarray@0.0.1 </tspan>
<tspan x="10" y="1962">│ │ │ │     └── string_decoder@0.10.31 </tspan>
<tspan x="10" y="1978">│ │ │ ├── on-headers@1.0.1 </tspan>
<tspan x="10" y="1994">│ │ │ ├── parseurl@1.3.1 </tspan>
<tspan x="10" y="2010">│ │ │ ├── pause@0.1.0 </tspan>
<tspan x="10" y="2026">│ │ │ ├── qs@4.0.0 </tspan>
<tspan x="10" y="2042">│ │ │ ├─┬ response-time@2.3.2 </tspan>
<tspan x="10" y="2058">│ │ │ │ └── depd@1.1.0 </tspan>
<tspan x="10" y="2074">│ │ │ ├─┬ serve-favicon@2.3.2 </tspan>
<tspan x="10" y="2090">│ │ │ │ ├── etag@1.7.0 </tspan>
<tspan x="10" y="2106">│ │ │ │ └── ms@0.7.2 </tspan>
<tspan x="10" y="2122">│ │ │ ├─┬ serve-index@1.7.3 </tspan>
<tspan x="10" y="2138">│ │ │ │ ├── batch@0.5.3 </tspan>
<tspan x="10" y="2154">│ │ │ │ └── mime-types@2.1.15 </tspan>
<tspan x="10" y="2170">│ │ │ ├─┬ serve-static@1.10.3 </tspan>
<tspan x="10" y="2186">│ │ │ │ └─┬ send@0.13.2 </tspan>
<tspan x="10" y="2202">│ │ │ │   ├── depd@1.1.0 </tspan>
<tspan x="10" y="2218">│ │ │ │   ├── destroy@1.0.4 </tspan>
<tspan x="10" y="2234">│ │ │ │   ├── range-parser@1.0.3 </tspan>
<tspan x="10" y="2250">│ │ │ │   └── statuses@1.2.1 </tspan>
<tspan x="10" y="2266">│ │ │ ├─┬ type-is@1.6.15 </tspan>
<tspan x="10" y="2282">│ │ │ │ └── media-typer@0.3.0 </tspan>
<tspan x="10" y="2298">│ │ │ ├── utils-merge@1.0.0 </tspan>
<tspan x="10" y="2314">│ │ │ └── vhost@3.0.2 </tspan>
<tspan x="10" y="2330">│ │ ├── di@0.0.1 </tspan>
<tspan x="10" y="2346">│ │ ├─┬ glob@5.0.15 </tspan>
<tspan x="10" y="2362">│ │ │ ├─┬ inflight@1.0.6 </tspan>
<tspan x="10" y="2378">│ │ │ │ └── wrappy@1.0.2 </tspan>
<tspan x="10" y="2394">│ │ │ └── once@1.4.0 </tspan>
<tspan x="10" y="2410">│ │ ├─┬ graceful-fs@3.0.11 </tspan>
<tspan x="10" y="2426">│ │ │ └── natives@1.1.0 </tspan>
<tspan x="10" y="2442">│ │ ├─┬ http-proxy@0.10.4 </tspan>
<tspan x="10" y="2458">│ │ │ ├── colors@0.6.2 </tspan>
<tspan x="10" y="2474">│ │ │ ├── pkginfo@0.3.1 </tspan>
<tspan x="10" y="2490">│ │ │ └─┬ utile@0.2.1 </tspan>
<tspan x="10" y="2506">│ │ │   ├── async@0.2.10 </tspan>
<tspan x="10" y="2522">│ │ │   ├── deep-equal@1.0.1 </tspan>
<tspan x="10" y="2538">│ │ │   ├── i@0.3.5 </tspan>
<tspan x="10" y="2554">│ │ │   ├─┬ mkdirp@0.5.1 </tspan>
<tspan x="10" y="2570">│ │ │   │ └── minimist@0.0.8 </tspan>
<tspan x="10" y="2586">│ │ │   └── ncp@0.4.2 </tspan>
<tspan x="10" y="2602">│ │ ├── lodash@3.10.1 </tspan>
<tspan x="10" y="2618">│ │ ├─┬ log4js@0.6.38 </tspan>
<tspan x="10" y="2634">│ │ │ ├─┬ readable-stream@1.0.34 </tspan>
<tspan x="10" y="2650">│ │ │ │ ├── core-util-is@1.0.2 </tspan>
<tspan x="10" y="2666">│ │ │ │ ├── isarray@0.0.1 </tspan>
<tspan x="10" y="2682">│ │ │ │ └── string_decoder@0.10.31 </tspan>
<tspan x="10" y="2698">│ │ │ └── semver@4.3.6 </tspan>
<tspan x="10" y="2714">│ │ ├── mime@1.3.4 </tspan>
<tspan x="10" y="2730">│ │ ├─┬ minimatch@2.0.10 </tspan>
<tspan x="10" y="2746">│ │ │ └─┬ brace-expansion@1.1.7 </tspan>
<tspan x="10" y="2762">│ │ │   ├── balanced-match@0.4.2 </tspan>
<tspan x="10" y="2778">│ │ │   └── concat-map@0.0.1 </tspan>
<tspan x="10" y="2794">│ │ ├─┬ optimist@0.6.1 </tspan>
<tspan x="10" y="2810">│ │ │ ├── minimist@0.0.10 </tspan>
<tspan x="10" y="2826">│ │ │ └── wordwrap@0.0.3 </tspan>
<tspan x="10" y="2842">│ │ ├── q@1.5.0 </tspan>
<tspan x="10" y="2858">│ │ ├─┬ rimraf@2.6.1 </tspan>
<tspan x="10" y="2874">│ │ │ └─┬ glob@7.1.1 </tspan>
<tspan x="10" y="2890">│ │ │   ├── fs.realpath@1.0.0 </tspan>
<tspan x="10" y="2906">│ │ │   └── minimatch@3.0.3 </tspan>
<tspan x="10" y="2922">│ │ ├─┬ socket.io@0.9.16 </tspan>
<tspan x="10" y="2938">│ │ │ ├── base64id@0.1.0 </tspan>
<tspan x="10" y="2954">│ │ │ ├── policyfile@0.0.4 </tspan>
<tspan x="10" y="2970">│ │ │ ├── redis@0.7.3 </tspan>
<tspan x="10" y="2986">│ │ │ └─┬ socket.io-client@0.9.16 </tspan>
<tspan x="10" y="3002">│ │ │   ├─┬ active-x-obfuscator@0.0.1 </tspan>
<tspan x="10" y="3018">│ │ │   │ └── zeparser@0.0.5 </tspan>
<tspan x="10" y="3034">│ │ │   ├── uglify-js@1.2.5 </tspan>
<tspan x="10" y="3050">│ │ │   ├─┬ ws@0.4.32 </tspan>
<tspan x="10" y="3066">│ │ │   │ ├── commander@2.1.0 </tspan>
<tspan x="10" y="3082">│ │ │   │ ├── nan@1.0.0 </tspan>
<tspan x="10" y="3098">│ │ │   │ └── tinycolor@0.0.1 </tspan>
<tspan x="10" y="3114">│ │ │   └── xmlhttprequest@1.4.2 </tspan>
<tspan x="10" y="3130">│ │ ├─┬ source-map@0.4.4 </tspan>
<tspan x="10" y="3146">│ │ │ └── amdefine@1.0.1 </tspan>
<tspan x="10" y="3162">│ │ └─┬ useragent@2.1.13 </tspan>
<tspan x="10" y="3178">│ │   ├── lru-cache@2.2.4 </tspan>
<tspan x="10" y="3194">│ │   └─┬ tmp@0.0.31 </tspan>
<tspan x="10" y="3210">│ │     └── os-tmpdir@1.0.2 </tspan>
<tspan x="10" y="3226">│ ├─┬ karma-chrome-launcher@0.1.12 </tspan>
<tspan x="10" y="3242">│ │ └─┬ which@1.2.14 </tspan>
<tspan x="10" y="3258">│ │   └── isexe@2.0.0 </tspan>
<tspan x="10" y="3274">│ └── karma-jasmine@0.1.6 </tspan>
<tspan x="10" y="3290">├── angular-ui-bootstrap@0.14.3 </tspan>
<tspan x="10" y="3306">├── angular-ui-codemirror@0.3.0 </tspan>
<tspan x="10" y="3322">├── angular-ui-router@0.2.18 </tspan>
<tspan x="10" y="3338">├── bootstrap@3.3.7 </tspan>
<tspan x="10" y="3354">├── chart.js@1.1.1 </tspan>
<tspan x="10" y="3370">├── codemirror@5.25.2 </tspan>
<tspan x="10" y="3386">├── jquery@2.2.4 </tspan>
<tspan x="10" y="3402">├─┬ socket.io-client@1.7.3 </tspan>
<tspan x="10" y="3418">│ ├── backo2@1.0.2 </tspan>
<tspan x="10" y="3434">│ ├── component-bind@1.0.0 </tspan>
<tspan x="10" y="3450">│ ├── component-emitter@1.2.1 </tspan>
<tspan x="10" y="3466">│ ├─┬ debug@2.3.3 </tspan>
<tspan x="10" y="3482">│ │ └── ms@0.7.2 </tspan>
<tspan x="10" y="3498">│ ├─┬ engine.io-client@1.8.3 </tspan>
<tspan x="10" y="3514">│ │ ├── component-inherit@0.0.3 </tspan>
<tspan x="10" y="3530">│ │ ├─┬ debug@2.3.3 </tspan>
<tspan x="10" y="3546">│ │ │ └── ms@0.7.2 </tspan>
<tspan x="10" y="3562">│ │ ├─┬ engine.io-parser@1.3.2 </tspan>
<tspan x="10" y="3578">│ │ │ ├── after@0.8.2 </tspan>
<tspan x="10" y="3594">│ │ │ ├── arraybuffer.slice@0.0.6 </tspan>
<tspan x="10" y="3610">│ │ │ ├── base64-arraybuffer@0.1.5 </tspan>
<tspan x="10" y="3626">│ │ │ ├── blob@0.0.4 </tspan>
<tspan x="10" y="3642">│ │ │ └── wtf-8@1.0.0 </tspan>
<tspan x="10" y="3658">│ │ ├── has-cors@1.1.0 </tspan>
<tspan x="10" y="3674">│ │ ├── parsejson@0.0.3 </tspan>
<tspan x="10" y="3690">│ │ ├── parseqs@0.0.5 </tspan>
<tspan x="10" y="3706">│ │ ├─┬ ws@1.1.2 </tspan>
<tspan x="10" y="3722">│ │ │ ├── options@0.0.6 </tspan>
<tspan x="10" y="3738">│ │ │ └── ultron@1.0.2 </tspan>
<tspan x="10" y="3754">│ │ ├── xmlhttprequest-ssl@1.5.3 </tspan>
<tspan x="10" y="3770">│ │ └── yeast@0.1.2 </tspan>
<tspan x="10" y="3786">│ ├─┬ has-binary@0.1.7 </tspan>
<tspan x="10" y="3802">│ │ └── isarray@0.0.1 </tspan>
<tspan x="10" y="3818">│ ├── indexof@0.0.1 </tspan>
<tspan x="10" y="3834">│ ├── object-component@0.0.3 </tspan>
<tspan x="10" y="3850">│ ├─┬ parseuri@0.0.5 </tspan>
<tspan x="10" y="3866">│ │ └─┬ better-assert@1.0.2 </tspan>
<tspan x="10" y="3882">│ │   └── callsite@1.0.0 </tspan>
<tspan x="10" y="3898">│ ├─┬ socket.io-parser@2.3.1 </tspan>
<tspan x="10" y="3914">│ │ ├── component-emitter@1.1.2 </tspan>
<tspan x="10" y="3930">│ │ ├─┬ debug@2.2.0 </tspan>
<tspan x="10" y="3946">│ │ │ └── ms@0.7.1 </tspan>
<tspan x="10" y="3962">│ │ ├── isarray@0.0.1 </tspan>
<tspan x="10" y="3978">│ │ └── json3@3.3.2 </tspan>
<tspan x="10" y="3994">│ └── to-array@0.1.4 </tspan>
<tspan x="10" y="4010">└── spin.js@2.3.2 </tspan>
<tspan x="10" y="4026">└─┬ nodeadmin@0.1.2 </tspan>
<tspan x="10" y="4042">  ├── bluebird@2.11.0 </tspan>
<tspan x="10" y="4058">  ├─┬ body-parser@1.17.1 </tspan>
<tspan x="10" y="4074">  │ ├── bytes@2.4.0 </tspan>
<tspan x="10" y="4090">  │ ├── content-type@1.0.2 </tspan>
<tspan x="10" y="4106">  │ ├── debug@2.6.1 </tspan>
<tspan x="10" y="4122">  │ ├── depd@1.1.0 </tspan>
<tspan x="10" y="4138">  │ ├─┬ http-errors@1.6.1 </tspan>
<tspan x="10" y="4154">  │ │ └── inherits@2.0.3 </tspan>
<tspan x="10" y="4170">  │ ├── iconv-lite@0.4.15 </tspan>
<tspan x="10" y="4186">  │ ├─┬ on-finished@2.3.0 </tspan>
<tspan x="10" y="4202">  │ │ └── ee-first@1.1.1 </tspan>
<tspan x="10" y="4218">  │ ├── qs@6.4.0 </tspan>
<tspan x="10" y="4234">  │ ├─┬ raw-body@2.2.0 </tspan>
<tspan x="10" y="4250">  │ │ └── unpipe@1.0.0 </tspan>
<tspan x="10" y="4266">  │ └─┬ type-is@1.6.15 </tspan>
<tspan x="10" y="4282">  │   ├── media-typer@0.3.0 </tspan>
<tspan x="10" y="4298">  │   └─┬ mime-types@2.1.15 </tspan>
<tspan x="10" y="4314">  │     └── mime-db@1.27.0 </tspan>
<tspan x="10" y="4330">  ├─┬ express@4.15.2 </tspan>
<tspan x="10" y="4346">  │ ├─┬ accepts@1.3.3 </tspan>
<tspan x="10" y="4362">  │ │ └── negotiator@0.6.1 </tspan>
<tspan x="10" y="4378">  │ ├── array-flatten@1.1.1 </tspan>
<tspan x="10" y="4394">  │ ├── content-disposition@0.5.2 </tspan>
<tspan x="10" y="4410">  │ ├── cookie@0.3.1 </tspan>
<tspan x="10" y="4426">  │ ├── cookie-signature@1.0.6 </tspan>
<tspan x="10" y="4442">  │ ├── encodeurl@1.0.1 </tspan>
<tspan x="10" y="4458">  │ ├── escape-html@1.0.3 </tspan>
<tspan x="10" y="4474">  │ ├── etag@1.8.0 </tspan>
<tspan x="10" y="4490">  │ ├─┬ finalhandler@1.0.2 </tspan>
<tspan x="10" y="4506">  │ │ └─┬ debug@2.6.4 </tspan>
<tspan x="10" y="4522">  │ │   └── ms@0.7.3 </tspan>
<tspan x="10" y="4538">  │ ├── fresh@0.5.0 </tspan>
<tspan x="10" y="4554">  │ ├── merge-descriptors@1.0.1 </tspan>
<tspan x="10" y="4570">  │ ├── methods@1.1.2 </tspan>
<tspan x="10" y="4586">  │ ├── parseurl@1.3.1 </tspan>
<tspan x="10" y="4602">  │ ├── path-to-regexp@0.1.7 </tspan>
<tspan x="10" y="4618">  │ ├─┬ proxy-addr@1.1.4 </tspan>
<tspan x="10" y="4634">  │ │ ├── forwarded@0.1.0 </tspan>
<tspan x="10" y="4650">  │ │ └── ipaddr.js@1.3.0 </tspan>
<tspan x="10" y="4666">  │ ├── range-parser@1.2.0 </tspan>
<tspan x="10" y="4682">  │ ├─┬ send@0.15.1 </tspan>
<tspan x="10" y="4698">  │ │ ├── destroy@1.0.4 </tspan>
<tspan x="10" y="4714">  │ │ └── mime@1.3.4 </tspan>
<tspan x="10" y="4730">  │ ├── serve-static@1.12.1 </tspan>
<tspan x="10" y="4746">  │ ├── setprototypeof@1.0.3 </tspan>
<tspan x="10" y="4762">  │ ├── statuses@1.3.1 </tspan>
<tspan x="10" y="4778">  │ ├── utils-merge@1.0.0 </tspan>
<tspan x="10" y="4794">  │ └── vary@1.1.1 </tspan>
<tspan x="10" y="4810">  ├─┬ jsonwebtoken@5.7.0 </tspan>
<tspan x="10" y="4826">  │ ├─┬ jws@3.1.4 </tspan>
<tspan x="10" y="4842">  │ │ ├── base64url@2.0.0 </tspan>
<tspan x="10" y="4858">  │ │ ├─┬ jwa@1.1.5 </tspan>
<tspan x="10" y="4874">  │ │ │ ├── buffer-equal-constant-time@1.0.1 </tspan>
<tspan x="10" y="4890">  │ │ │ └── ecdsa-sig-formatter@1.0.9 </tspan>
<tspan x="10" y="4906">  │ │ └── safe-buffer@5.0.1 </tspan>
<tspan x="10" y="4922">  │ ├── ms@0.7.2 </tspan>
<tspan x="10" y="4938">  │ └── xtend@4.0.1 </tspan>
<tspan x="10" y="4954">  ├─┬ morgan@1.8.1 </tspan>
<tspan x="10" y="4970">  │ ├── basic-auth@1.1.0 </tspan>
<tspan x="10" y="4986">  │ └── on-headers@1.0.1 </tspan>
<tspan x="10" y="5002">  ├─┬ mysql@2.13.0 </tspan>
<tspan x="10" y="5018">  │ ├── bignumber.js@3.1.2 </tspan>
<tspan x="10" y="5034">  │ ├─┬ readable-stream@1.1.14 </tspan>
<tspan x="10" y="5050">  │ │ ├── core-util-is@1.0.2 </tspan>
<tspan x="10" y="5066">  │ │ ├── isarray@0.0.1 </tspan>
<tspan x="10" y="5082">  │ │ └── string_decoder@0.10.31 </tspan>
<tspan x="10" y="5098">  │ └── sqlstring@2.2.0 </tspan>
<tspan x="10" y="5114">  ├─┬ path@0.12.7 </tspan>
<tspan x="10" y="5130">  │ ├── process@0.11.9 </tspan>
<tspan x="10" y="5146">  │ └─┬ util@0.10.3 </tspan>
<tspan x="10" y="5162">  │   └── inherits@2.0.1 </tspan>
<tspan x="10" y="5178">  ├── promise-mysql@1.3.2 </tspan>
<tspan x="10" y="5194">  ├─┬ randomstring@1.1.5 </tspan>
<tspan x="10" y="5210">  │ └── array-uniq@1.0.2 </tspan>
<tspan x="10" y="5226">  └─┬ socket.io@1.7.3 </tspan>
<tspan x="10" y="5242">    ├── debug@2.3.3 </tspan>
<tspan x="10" y="5258">    ├─┬ engine.io@1.8.3 </tspan>
<tspan x="10" y="5274">    │ ├── base64id@1.0.0 </tspan>
<tspan x="10" y="5290">    │ ├── debug@2.3.3 </tspan>
<tspan x="10" y="5306">    │ ├─┬ engine.io-parser@1.3.2 </tspan>
<tspan x="10" y="5322">    │ │ ├── after@0.8.2 </tspan>
<tspan x="10" y="5338">    │ │ ├── arraybuffer.slice@0.0.6 </tspan>
<tspan x="10" y="5354">    │ │ ├── base64-arraybuffer@0.1.5 </tspan>
<tspan x="10" y="5370">    │ │ ├── blob@0.0.4 </tspan>
<tspan x="10" y="5386">    │ │ └── wtf-8@1.0.0 </tspan>
<tspan x="10" y="5402">    │ └─┬ ws@1.1.2 </tspan>
<tspan x="10" y="5418">    │   ├── options@0.0.6 </tspan>
<tspan x="10" y="5434">    │   └── ultron@1.0.2 </tspan>
<tspan x="10" y="5450">    ├── has-binary@0.1.7 </tspan>
<tspan x="10" y="5466">    ├── object-assign@4.1.0 </tspan>
<tspan x="10" y="5482">    ├─┬ socket.io-adapter@0.5.0 </tspan>
<tspan x="10" y="5498">    │ └── debug@2.3.3 </tspan>
<tspan x="10" y="5514">    ├─┬ socket.io-client@1.7.3 </tspan>
<tspan x="10" y="5530">    │ ├── backo2@1.0.2 </tspan>
<tspan x="10" y="5546">    │ ├── component-bind@1.0.0 </tspan>
<tspan x="10" y="5562">    │ ├── component-emitter@1.2.1 </tspan>
<tspan x="10" y="5578">    │ ├── debug@2.3.3 </tspan>
<tspan x="10" y="5594">    │ ├─┬ engine.io-client@1.8.3 </tspan>
<tspan x="10" y="5610">    │ │ ├── component-emitter@1.2.1 </tspan>
<tspan x="10" y="5626">    │ │ ├── component-inherit@0.0.3 </tspan>
<tspan x="10" y="5642">    │ │ ├── debug@2.3.3 </tspan>
<tspan x="10" y="5658">    │ │ ├── has-cors@1.1.0 </tspan>
<tspan x="10" y="5674">    │ │ ├── parsejson@0.0.3 </tspan>
<tspan x="10" y="5690">    │ │ ├── parseqs@0.0.5 </tspan>
<tspan x="10" y="5706">    │ │ ├── xmlhttprequest-ssl@1.5.3 </tspan>
<tspan x="10" y="5722">    │ │ └── yeast@0.1.2 </tspan>
<tspan x="10" y="5738">    │ ├── indexof@0.0.1 </tspan>
<tspan x="10" y="5754">    │ ├── object-component@0.0.3 </tspan>
<tspan x="10" y="5770">    │ ├─┬ parseuri@0.0.5 </tspan>
<tspan x="10" y="5786">    │ │ └─┬ better-assert@1.0.2 </tspan>
<tspan x="10" y="5802">    │ │   └── callsite@1.0.0 </tspan>
<tspan x="10" y="5818">    │ └── to-array@0.1.4 </tspan>
<tspan x="10" y="5834">    └─┬ socket.io-parser@2.3.1 </tspan>
<tspan x="10" y="5850">      ├── component-emitter@1.1.2 </tspan>
<tspan x="10" y="5866">      ├─┬ debug@2.2.0 </tspan>
<tspan x="10" y="5882">      │ └── ms@0.7.1 </tspan>
<tspan x="10" y="5898">      └── json3@3.3.2</tspan>
</text>
</svg>
